<svg width="39" height="39" viewBox="0 0 39 39" fill="none" xmlns="http://www.w3.org/2000/svg">
<path d="M9.81196 21.2611C10.2925 20.7922 10.5625 20.1564 10.5625 19.4933C10.5625 18.8303 10.2925 18.1944 9.81196 17.7256C9.3314 17.2567 8.67962 16.9933 8 16.9933C7.32038 16.9933 6.6686 17.2567 6.18804 17.7256C5.70748 18.1944 5.4375 18.8303 5.4375 19.4933C5.4375 20.1564 5.70748 20.7922 6.18804 21.2611C6.6686 21.7299 7.32038 21.9933 8 21.9933C8.67962 21.9933 9.3314 21.7299 9.81196 21.2611Z" fill="#CBD5E0"/>
<path d="M21.3118 21.2678C21.7923 20.7989 22.0623 20.1631 22.0623 19.5C22.0623 18.837 21.7923 18.2011 21.3118 17.7322C20.8312 17.2634 20.1794 17 19.4998 17C18.8202 17 18.1684 17.2634 17.6878 17.7322C17.2073 18.2011 16.9373 18.837 16.9373 19.5C16.9373 20.1631 17.2073 20.7989 17.6878 21.2678C18.1684 21.7366 18.8202 22 19.4998 22C20.1794 22 20.8312 21.7366 21.3118 21.2678Z" fill="#CBD5E0"/>
<path d="M32.812 21.2685C33.2925 20.7997 33.5625 20.1638 33.5625 19.5007C33.5625 18.8377 33.2925 18.2018 32.812 17.733C32.3314 17.2641 31.6796 17.0007 31 17.0007C30.3204 17.0007 29.6686 17.2641 29.188 17.733C28.7075 18.2018 28.4375 18.8377 28.4375 19.5007C28.4375 20.1638 28.7075 20.7997 29.188 21.2685C29.6686 21.7374 30.3204 22.0007 31 22.0007C31.6796 22.0007 32.3314 21.7374 32.812 21.2685Z" fill="#CBD5E0"/>
<path d="M9.81196 21.2611C10.2925 20.7922 10.5625 20.1564 10.5625 19.4933C10.5625 18.8303 10.2925 18.1944 9.81196 17.7256C9.3314 17.2567 8.67962 16.9933 8 16.9933C7.32038 16.9933 6.6686 17.2567 6.18804 17.7256C5.70748 18.1944 5.4375 18.8303 5.4375 19.4933C5.4375 20.1564 5.70748 20.7922 6.18804 21.2611C6.6686 21.7299 7.32038 21.9933 8 21.9933C8.67962 21.9933 9.3314 21.7299 9.81196 21.2611Z" stroke="#CBD5E0" stroke-width="3" stroke-linecap="round" stroke-linejoin="round"/>
<path d="M21.3118 21.2678C21.7923 20.7989 22.0623 20.1631 22.0623 19.5C22.0623 18.837 21.7923 18.2011 21.3118 17.7322C20.8312 17.2634 20.1794 17 19.4998 17C18.8202 17 18.1684 17.2634 17.6878 17.7322C17.2073 18.2011 16.9373 18.837 16.9373 19.5C16.9373 20.1631 17.2073 20.7989 17.6878 21.2678C18.1684 21.7366 18.8202 22 19.4998 22C20.1794 22 20.8312 21.7366 21.3118 21.2678Z" stroke="#CBD5E0" stroke-width="3" stroke-linecap="round" stroke-linejoin="round"/>
<path d="M32.812 21.2685C33.2925 20.7997 33.5625 20.1638 33.5625 19.5007C33.5625 18.8377 33.2925 18.2018 32.812 17.733C32.3314 17.2641 31.6796 17.0007 31 17.0007C30.3204 17.0007 29.6686 17.2641 29.188 17.733C28.7075 18.2018 28.4375 18.8377 28.4375 19.5007C28.4375 20.1638 28.7075 20.7997 29.188 21.2685C29.6686 21.7374 30.3204 22.0007 31 22.0007C31.6796 22.0007 32.3314 21.7374 32.812 21.2685Z" stroke="#CBD5E0" stroke-width="3" stroke-linecap="round" stroke-linejoin="round"/>
<path d="M9.27405 20.649C9.57879 20.3443 9.75 19.931 9.75 19.5C9.75 19.069 9.57879 18.6557 9.27405 18.351C8.9693 18.0462 8.55598 17.875 8.125 17.875C7.69402 17.875 7.2807 18.0462 6.97595 18.351C6.67121 18.6557 6.5 19.069 6.5 19.5C6.5 19.931 6.67121 20.3443 6.97595 20.649C7.2807 20.9538 7.69402 21.125 8.125 21.125C8.55598 21.125 8.9693 20.9538 9.27405 20.649Z" fill="#1A202C"/>
<path d="M20.649 20.649C20.9538 20.3443 21.125 19.931 21.125 19.5C21.125 19.069 20.9538 18.6557 20.649 18.351C20.3443 18.0462 19.931 17.875 19.5 17.875C19.069 17.875 18.6557 18.0462 18.351 18.351C18.0462 18.6557 17.875 19.069 17.875 19.5C17.875 19.931 18.0462 20.3443 18.351 20.649C18.6557 20.9538 19.069 21.125 19.5 21.125C19.931 21.125 20.3443 20.9538 20.649 20.649Z" fill="#1A202C"/>
<path d="M32.024 20.649C32.3288 20.3443 32.5 19.931 32.5 19.5C32.5 19.069 32.3288 18.6557 32.024 18.351C31.7193 18.0462 31.306 17.875 30.875 17.875C30.444 17.875 30.0307 18.0462 29.726 18.351C29.4212 18.6557 29.25 19.069 29.25 19.5C29.25 19.931 29.4212 20.3443 29.726 20.649C30.0307 20.9538 30.444 21.125 30.875 21.125C31.306 21.125 31.7193 20.9538 32.024 20.649Z" fill="#1A202C"/>
<path d="M9.27405 20.649C9.57879 20.3443 9.75 19.931 9.75 19.5C9.75 19.069 9.57879 18.6557 9.27405 18.351C8.9693 18.0462 8.55598 17.875 8.125 17.875C7.69402 17.875 7.2807 18.0462 6.97595 18.351C6.67121 18.6557 6.5 19.069 6.5 19.5C6.5 19.931 6.67121 20.3443 6.97595 20.649C7.2807 20.9538 7.69402 21.125 8.125 21.125C8.55598 21.125 8.9693 20.9538 9.27405 20.649Z" stroke="#1A202C" stroke-width="3" stroke-linecap="round" stroke-linejoin="round"/>
<path d="M20.649 20.649C20.9538 20.3443 21.125 19.931 21.125 19.5C21.125 19.069 20.9538 18.6557 20.649 18.351C20.3443 18.0462 19.931 17.875 19.5 17.875C19.069 17.875 18.6557 18.0462 18.351 18.351C18.0462 18.6557 17.875 19.069 17.875 19.5C17.875 19.931 18.0462 20.3443 18.351 20.649C18.6557 20.9538 19.069 21.125 19.5 21.125C19.931 21.125 20.3443 20.9538 20.649 20.649Z" stroke="#1A202C" stroke-width="3" stroke-linecap="round" stroke-linejoin="round"/>
<path d="M32.024 20.649C32.3288 20.3443 32.5 19.931 32.5 19.5C32.5 19.069 32.3288 18.6557 32.024 18.351C31.7193 18.0462 31.306 17.875 30.875 17.875C30.444 17.875 30.0307 18.0462 29.726 18.351C29.4212 18.6557 29.25 19.069 29.25 19.5C29.25 19.931 29.4212 20.3443 29.726 20.649C30.0307 20.9538 30.444 21.125 30.875 21.125C31.306 21.125 31.7193 20.9538 32.024 20.649Z" stroke="#1A202C" stroke-width="3" stroke-linecap="round" stroke-linejoin="round"/>
</svg>