<svg width="205" height="86" viewBox="0 0 205 86" fill="none" xmlns="http://www.w3.org/2000/svg">
<path d="M33.336 28.176V41.808H54.968V48.848H33.336V66H25.016V21.2H57.72V28.176H33.336ZM96.1885 49.104C96.1885 49.6587 96.1458 50.448 96.0605 51.472H69.2445C69.7138 53.9893 70.9298 55.9947 72.8925 57.488C74.8978 58.9387 77.3725 59.664 80.3165 59.664C84.0712 59.664 87.1645 58.4267 89.5965 55.952L93.8845 60.88C92.3485 62.7147 90.4072 64.1013 88.0605 65.04C85.7138 65.9787 83.0685 66.448 80.1245 66.448C76.3698 66.448 73.0632 65.7013 70.2045 64.208C67.3458 62.7147 65.1272 60.6453 63.5485 58C62.0125 55.312 61.2445 52.2827 61.2445 48.912C61.2445 45.584 61.9912 42.5973 63.4845 39.952C65.0205 37.264 67.1325 35.1733 69.8205 33.68C72.5085 32.1867 75.5378 31.44 78.9085 31.44C82.2365 31.44 85.2018 32.1867 87.8045 33.68C90.4498 35.1307 92.4978 37.2 93.9485 39.888C95.4418 42.5333 96.1885 45.6053 96.1885 49.104ZM78.9085 37.84C76.3485 37.84 74.1725 38.608 72.3805 40.144C70.6312 41.6373 69.5645 43.6427 69.1805 46.16H88.5725C88.2312 43.6853 87.1858 41.68 85.4365 40.144C83.6872 38.608 81.5112 37.84 78.9085 37.84ZM123.265 31.44C127.574 31.44 131.03 32.6987 133.633 35.216C136.236 37.7333 137.537 41.4667 137.537 46.416V66H129.537V47.44C129.537 44.4533 128.833 42.2133 127.425 40.72C126.017 39.184 124.012 38.416 121.409 38.416C118.465 38.416 116.14 39.312 114.433 41.104C112.726 42.8533 111.873 45.392 111.873 48.72V66H103.873V31.824H111.489V36.24C112.812 34.6613 114.476 33.4667 116.481 32.656C118.486 31.8453 120.748 31.44 123.265 31.44Z" fill="white"/>
<path d="M4 82H198.013L152.21 4H4V82Z" stroke="white" stroke-width="8"/>
<path d="M184 21L192 21L165.999 66.0001L158.001 66.0001L184 21Z" fill="white"/>
</svg>
