<svg width="18" height="18" viewBox="0 0 18 18" fill="none" xmlns="http://www.w3.org/2000/svg">
<path d="M3.23853 4.7385C2.92513 5.0519 2.67652 5.42396 2.50691 5.83343C2.3373 6.24291 2.25 6.68178 2.25 7.125C2.25 7.56821 2.3373 8.00709 2.50691 8.41656C2.67652 8.82604 2.92513 9.1981 3.23853 9.5115L9.00003 15.273L14.7615 9.5115C15.3945 8.87856 15.7501 8.02011 15.7501 7.125C15.7501 6.22989 15.3945 5.37144 14.7615 4.7385C14.1286 4.10556 13.2701 3.74998 12.375 3.74998C11.4799 3.74998 10.6215 4.10556 9.98853 4.7385L9.00003 5.727L8.01153 4.7385C7.69813 4.4251 7.32607 4.17649 6.9166 4.00688C6.50712 3.83727 6.06825 3.74997 5.62503 3.74997C5.18182 3.74997 4.74294 3.83727 4.33346 4.00688C3.92399 4.17649 3.55193 4.4251 3.23853 4.7385V4.7385Z" stroke="#718096" stroke-width="2" stroke-linecap="round" stroke-linejoin="round"/>
</svg>
