<svg width="28" height="28" viewBox="0 0 28 28" fill="none" xmlns="http://www.w3.org/2000/svg">
<path d="M5.03771 7.37099C4.5502 7.8585 4.16348 8.43726 3.89964 9.07423C3.6358 9.71119 3.5 10.3939 3.5 11.0833C3.5 11.7728 3.6358 12.4555 3.89964 13.0924C4.16348 13.7294 4.5502 14.3082 5.03771 14.7957L14 23.758L22.9624 14.7957C23.9469 13.8111 24.5001 12.4757 24.5001 11.0833C24.5001 9.69093 23.9469 8.35557 22.9624 7.37099C21.9778 6.38642 20.6424 5.8333 19.25 5.8333C17.8576 5.8333 16.5223 6.38642 15.5377 7.37099L14 8.90866L12.4624 7.37099C11.9749 6.88348 11.3961 6.49676 10.7591 6.23292C10.1222 5.96908 9.43949 5.83328 8.75005 5.83328C8.0606 5.83328 7.37791 5.96908 6.74094 6.23292C6.10398 6.49676 5.52522 6.88348 5.03771 7.37099Z" fill="#E53E3E" stroke="#E53E3E" stroke-width="2" stroke-linecap="round" stroke-linejoin="round"/>
</svg>
